<?xml version="1.0" encoding="UTF-8"?> <svg xmlns="http://www.w3.org/2000/svg" xmlns:xlink="http://www.w3.org/1999/xlink" version="1.1" id="Layer_1" x="0px" y="0px" viewBox="0 0 1024 527.9" style="enable-background:new 0 0 1024 527.9;" xml:space="preserve"> <style type="text/css"> .st0{fill:#FF3300;} .st1{fill:#FFFFFF;} </style> <g id="surface1"> <path class="st0" d="M317.1,61.6h389.6V388H317.1V61.6z"></path> <path class="st1" d="M616.8,249.3v23.8c0,6.3-5.1,11.4-11.4,11.4s-11.4-5.1-11.4-11.4v-117h-22v136.7h66.8v-43.5L616.8,249.3 L616.8,249.3z M451.3,272.9c0,6.4-5,11.7-11.3,11.7c-6.3-0.1-11.4-5.3-11.4-11.6v-23.8h-22V269c0,9.9,8.7,25.8,33.4,25.8 s33.4-12.2,33.4-25.8V156.1h-22V272.9z M534,156.1h-44.1v136.7H534c16.5,0,22-10.9,22-17.9V234c0-5.8-5.8-13.4-14.5-13.4 c8.7,0,14.5-12.1,14.5-18.8v-23.3C556,163.3,542.5,156.1,534,156.1z M525.3,281.6H512v-55.1h13.4c8.7,0,8.7,6.3,8.7,27.7 S534,281.6,525.3,281.6z M524,215l-12-0.1v-45.9h12c8.1,0,10,1.7,10,23.1C534,213.6,532,215,524,215z M417.6,234.4 c7.2,0.1,13.1-5.6,13.2-12.7c0.1-7.2-5.6-13.1-12.7-13.2c-7.2-0.1-13.1,5.6-13.2,12.7v0.2C404.8,228.5,410.5,234.3,417.6,234.4z M437.9,156.1h-40.7l20.3,47.2L437.9,156.1z"></path> <path class="st0" d="M391.9,411.2v21.8H367v-21.8h-10v48.9h10.1v-22.8H392v17.6c0,0.9,0.2,1.9,0.6,2.7c0.4,0.7,0.9,1.2,1.6,1.6 c0.6,0.4,1.3,0.6,2,0.7c0.6,0.1,1.3,0.2,1.9,0.2h3.9v-48.9L391.9,411.2L391.9,411.2z"></path> <path class="st0" d="M588.6,460.1v-48.9h-9.8l-19.7,36.2L539,411.1h-10v48.9h5.2v-38l21.2,38h2.6l20.6-37.6v32.4 c0,0.9,0.2,1.9,0.7,2.7c0.4,0.7,1,1.2,1.6,1.6c0.6,0.4,1.3,0.6,2,0.7c0.6,0.1,1.3,0.2,2,0.2H588.6z"></path> <path class="st0" d="M651.8,460.1l-25.2-50h-3l-25.8,50h5.9l8-15.5H630l-2.5-5h-13.2l8.5-16.5l16.6,33.1c0.5,1.2,1.4,2.2,2.4,3 c1.1,0.7,2.4,1,3.7,0.9H651.8z"></path> <path class="st0" d="M704.2,411.2c-0.3,0-0.6,0-0.9,0.1c-0.4,0.1-0.7,0.2-1,0.4c-0.3,0.2-0.6,0.5-0.8,0.8c-0.2,0.4-0.3,0.9-0.3,1.4 v31.5l-33.5-34.2h-6.4v48.9h5.9v-36.9l34,35.7c1.4,1.4,3.3,1.2,5.2,1.2h0.7v-48.9H704.2z"></path> <path class="st0" d="M440.2,410.1h-2.9l-25.8,50h5.9l19.1-37l8.3,16.5h-13.2l-2.6,4.9h18.4l5.8,11.7c0.5,1.2,1.4,2.2,2.4,3 c1.1,0.6,2.4,0.9,3.7,0.9h6.2L440.2,410.1z"></path> <path class="st0" d="M504.8,456.2L490,437.8h-5.2v22.4h-10v-48.9h18.5c0,0,7.6-0.1,12.6,2.4c5,2.6,7.1,6.1,7.1,10.6 c0,4.5-2.6,9.8-12.2,12.5l19.3,23.3h-7.8c-1.2,0-2.4-0.2-3.5-0.6C506.9,458.8,504.8,456.2,504.8,456.2z M484.8,415.5V434h4.7 c0,0,4.6,0.1,7.7-1.7c3.1-1.8,5.2-4.2,5.2-7.8c0-3.6-2.2-6.8-5.6-8.1c-1.6-0.7-3.4-1-5.2-0.9L484.8,415.5L484.8,415.5z"></path> <path class="st0" d="M317.1,437.3h1.5v9.4c1.5-1.5,2.8-2.3,5.1-2.3c3.7,0,6.2,2.8,6.2,7c0,4.8-3.1,7.9-7.9,7.9 c-1.7,0-3.4-0.4-4.9-1.1V437.3z M318.7,457.1c1.1,0.4,2.3,0.7,3.5,0.7c3.4,0.1,6.2-2.5,6.3-5.9c0-0.1,0-0.3,0-0.4 c0-3.4-2-5.8-4.9-5.8c-1.8,0-3.2,0.8-4.9,2.8V457.1z"></path> <path class="st0" d="M334.5,466.3H333l4.9-10.1l-5.9-11.5h1.6l5.1,10l4.9-10h1.6L334.5,466.3z"></path> </g> </svg> 